# xmcd CD database file
#
# Track frame offsets:
#	150
#	31406
#	64946
#	88059
#	112525
#	121507
#	149232
#	168110
#	192585
#	215826
#	239568
#	256718
#
# Disc length: 3768 seconds
#
# Revision: 0
# Processed by: cddbd v1.5.2PL0 Copyright (c) Steve Scherf et al.
# Submitted via: CDex 1.51
#
DISCID=aa0eb60c
DTITLE=Dafnis Prieto Sextet - Taking the soul for a walk
DYEAR=2008
DGENRE=Jazz
TTITLE0=Taking the soul for a walk
TTITLE1=The sooner the better
TTITLE2=En las ruinas de su Infancia
TTITLE3=Until the last minute
TTITLE4=Comandante
TTITLE5=Just say it
TTITLE6=Tell me about Her
TTITLE7=Two Excuses
TTITLE8=I felt you were coming
TTITLE9=Prelude para Rosa
TTITLE10=You'll never say yes
TTITLE11=Emergency Call
EXTD=YEAR: 2008
EXTT0=
EXTT1=
EXTT2=
EXTT3=
EXTT4=
EXTT5=
EXTT6=
EXTT7=
EXTT8=
EXTT9=
EXTT10=
EXTT11=
PLAYORDER=
